<svg xmlns="http://www.w3.org/2000/svg" width="1200" height="750" viewBox="0 0 1200 750"><defs><radialGradient id="g"><stop stop-color="hsl(196,35%,27%)"/><stop offset="1" stop-color="#0d1b1b"/></radialGradient><pattern id="p" width="40" height="40" patternUnits="userSpaceOnUse"><path d="M40 0H0V40" fill="none" stroke="#b5dfac" stroke-opacity=".07"/></pattern></defs><rect width="1200" height="750" fill="url(#g)"/><rect width="1200" height="750" fill="url(#p)"/><circle cx="906" cy="116" r="20" fill="none" stroke="hsl(196,70%,65%)" stroke-opacity=".3"/><path d="M600 320L906 116" stroke="#a8eaa3" stroke-opacity=".12"/><circle cx="183" cy="189" r="37" fill="none" stroke="hsl(199,70%,65%)" stroke-opacity=".3"/><path d="M600 320L183 189" stroke="#a8eaa3" stroke-opacity=".12"/><circle cx="310" cy="262" r="54" fill="none" stroke="hsl(202,70%,65%)" stroke-opacity=".3"/><path d="M600 320L310 262" stroke="#a8eaa3" stroke-opacity=".12"/><circle cx="437" cy="335" r="71" fill="none" stroke="hsl(205,70%,65%)" stroke-opacity=".3"/><path d="M600 320L437 335" stroke="#a8eaa3" stroke-opacity=".12"/><circle cx="564" cy="408" r="88" fill="none" stroke="hsl(208,70%,65%)" stroke-opacity=".3"/><path d="M600 320L564 408" stroke="#a8eaa3" stroke-opacity=".12"/><circle cx="691" cy="481" r="35" fill="none" stroke="hsl(211,70%,65%)" stroke-opacity=".3"/><path d="M600 320L691 481" stroke="#a8eaa3" stroke-opacity=".12"/><circle cx="818" cy="144" r="52" fill="none" stroke="hsl(214,70%,65%)" stroke-opacity=".3"/><path d="M600 320L818 144" stroke="#a8eaa3" stroke-opacity=".12"/><circle cx="945" cy="217" r="69" fill="none" stroke="hsl(217,70%,65%)" stroke-opacity=".3"/><path d="M600 320L945 217" stroke="#a8eaa3" stroke-opacity=".12"/><circle cx="222" cy="290" r="86" fill="none" stroke="hsl(220,70%,65%)" stroke-opacity=".3"/><path d="M600 320L222 290" stroke="#a8eaa3" stroke-opacity=".12"/><circle cx="349" cy="363" r="33" fill="none" stroke="hsl(223,70%,65%)" stroke-opacity=".3"/><path d="M600 320L349 363" stroke="#a8eaa3" stroke-opacity=".12"/><circle cx="476" cy="436" r="50" fill="none" stroke="hsl(226,70%,65%)" stroke-opacity=".3"/><path d="M600 320L476 436" stroke="#a8eaa3" stroke-opacity=".12"/><circle cx="603" cy="99" r="67" fill="none" stroke="hsl(229,70%,65%)" stroke-opacity=".3"/><path d="M600 320L603 99" stroke="#a8eaa3" stroke-opacity=".12"/><circle cx="730" cy="172" r="84" fill="none" stroke="hsl(232,70%,65%)" stroke-opacity=".3"/><path d="M600 320L730 172" stroke="#a8eaa3" stroke-opacity=".12"/><circle cx="857" cy="245" r="31" fill="none" stroke="hsl(235,70%,65%)" stroke-opacity=".3"/><path d="M600 320L857 245" stroke="#a8eaa3" stroke-opacity=".12"/><g data-fallback="network"><path d="M330 155L600 155" stroke="#76c9da" stroke-opacity=".5" stroke-width="2"/><path d="M330 155L600 260" stroke="#76c9da" stroke-opacity=".5" stroke-width="2"/><path d="M330 155L600 365" stroke="#76c9da" stroke-opacity=".5" stroke-width="2"/><path d="M330 155L600 470" stroke="#76c9da" stroke-opacity=".5" stroke-width="2"/><path d="M330 260L600 155" stroke="#76c9da" stroke-opacity=".5" stroke-width="2"/><path d="M330 260L600 260" stroke="#76c9da" stroke-opacity=".5" stroke-width="2"/><path d="M330 260L600 365" stroke="#76c9da" stroke-opacity=".5" stroke-width="2"/><path d="M330 260L600 470" stroke="#76c9da" stroke-opacity=".5" stroke-width="2"/><path d="M330 365L600 155" stroke="#76c9da" stroke-opacity=".5" stroke-width="2"/><path d="M330 365L600 260" stroke="#76c9da" stroke-opacity=".5" stroke-width="2"/><path d="M330 365L600 365" stroke="#76c9da" stroke-opacity=".5" stroke-width="2"/><path d="M330 365L600 470" stroke="#76c9da" stroke-opacity=".5" stroke-width="2"/><path d="M330 470L600 155" stroke="#76c9da" stroke-opacity=".5" stroke-width="2"/><path d="M330 470L600 260" stroke="#76c9da" stroke-opacity=".5" stroke-width="2"/><path d="M330 470L600 365" stroke="#76c9da" stroke-opacity=".5" stroke-width="2"/><path d="M330 470L600 470" stroke="#76c9da" stroke-opacity=".5" stroke-width="2"/><path d="M600 155L870 155" stroke="#76c9da" stroke-opacity=".5" stroke-width="2"/><path d="M600 155L870 260" stroke="#76c9da" stroke-opacity=".5" stroke-width="2"/><path d="M600 155L870 365" stroke="#76c9da" stroke-opacity=".5" stroke-width="2"/><path d="M600 155L870 470" stroke="#76c9da" stroke-opacity=".5" stroke-width="2"/><path d="M600 260L870 155" stroke="#76c9da" stroke-opacity=".5" stroke-width="2"/><path d="M600 260L870 260" stroke="#76c9da" stroke-opacity=".5" stroke-width="2"/><path d="M600 260L870 365" stroke="#76c9da" stroke-opacity=".5" stroke-width="2"/><path d="M600 260L870 470" stroke="#76c9da" stroke-opacity=".5" stroke-width="2"/><path d="M600 365L870 155" stroke="#76c9da" stroke-opacity=".5" stroke-width="2"/><path d="M600 365L870 260" stroke="#76c9da" stroke-opacity=".5" stroke-width="2"/><path d="M600 365L870 365" stroke="#76c9da" stroke-opacity=".5" stroke-width="2"/><path d="M600 365L870 470" stroke="#76c9da" stroke-opacity=".5" stroke-width="2"/><path d="M600 470L870 155" stroke="#76c9da" stroke-opacity=".5" stroke-width="2"/><path d="M600 470L870 260" stroke="#76c9da" stroke-opacity=".5" stroke-width="2"/><path d="M600 470L870 365" stroke="#76c9da" stroke-opacity=".5" stroke-width="2"/><path d="M600 470L870 470" stroke="#76c9da" stroke-opacity=".5" stroke-width="2"/><circle cx="330" cy="155" r="27" fill="hsl(196,50%,28%)" stroke="#d8ff36" stroke-width="3"/><circle cx="330" cy="155" r="7" fill="#e3f9c7"/><circle cx="330" cy="260" r="27" fill="hsl(196,50%,28%)" stroke="#d8ff36" stroke-width="3"/><circle cx="330" cy="260" r="7" fill="#e3f9c7"/><circle cx="330" cy="365" r="27" fill="hsl(196,50%,28%)" stroke="#d8ff36" stroke-width="3"/><circle cx="330" cy="365" r="7" fill="#e3f9c7"/><circle cx="330" cy="470" r="27" fill="hsl(196,50%,28%)" stroke="#d8ff36" stroke-width="3"/><circle cx="330" cy="470" r="7" fill="#e3f9c7"/><circle cx="600" cy="155" r="27" fill="hsl(226,50%,28%)" stroke="#d8ff36" stroke-width="3"/><circle cx="600" cy="155" r="7" fill="#e3f9c7"/><circle cx="600" cy="260" r="27" fill="hsl(226,50%,28%)" stroke="#d8ff36" stroke-width="3"/><circle cx="600" cy="260" r="7" fill="#e3f9c7"/><circle cx="600" cy="365" r="27" fill="hsl(226,50%,28%)" stroke="#d8ff36" stroke-width="3"/><circle cx="600" cy="365" r="7" fill="#e3f9c7"/><circle cx="600" cy="470" r="27" fill="hsl(226,50%,28%)" stroke="#d8ff36" stroke-width="3"/><circle cx="600" cy="470" r="7" fill="#e3f9c7"/><circle cx="870" cy="155" r="27" fill="hsl(256,50%,28%)" stroke="#d8ff36" stroke-width="3"/><circle cx="870" cy="155" r="7" fill="#e3f9c7"/><circle cx="870" cy="260" r="27" fill="hsl(256,50%,28%)" stroke="#d8ff36" stroke-width="3"/><circle cx="870" cy="260" r="7" fill="#e3f9c7"/><circle cx="870" cy="365" r="27" fill="hsl(256,50%,28%)" stroke="#d8ff36" stroke-width="3"/><circle cx="870" cy="365" r="7" fill="#e3f9c7"/><circle cx="870" cy="470" r="27" fill="hsl(256,50%,28%)" stroke="#d8ff36" stroke-width="3"/><circle cx="870" cy="470" r="7" fill="#e3f9c7"/></g><text x="60" y="65" fill="#d8ff36" font-family="monospace" font-size="18" letter-spacing="4">IN / SIGNAL — OPEN SOURCE</text><text x="60" y="665" fill="#dce6d9" font-family="Arial,sans-serif" font-size="30">Hugging Face Integrates Llama.cpp Quantizations into Transformers</text><text x="60" y="706" fill="#879d91" font-family="monospace" font-size="13" letter-spacing="3">EDITORIAL ILLUSTRATION / INVERSO LABS</text></svg>